<?xml version="1.0" encoding="UTF-8" standalone="no"?><!DOCTYPE svg PUBLIC "-//W3C//DTD SVG 1.1//EN" "http://www.w3.org/Graphics/SVG/1.1/DTD/svg11.dtd"><svg width="100%" height="100%" viewBox="0 0 671 276" version="1.1" xmlns="http://www.w3.org/2000/svg" xmlns:xlink="http://www.w3.org/1999/xlink" xml:space="preserve" xmlns:serif="http://www.serif.com/" style="fill-rule:evenodd;clip-rule:evenodd;stroke-linejoin:round;stroke-miterlimit:1.41421;"><g><path d="M65.275,67.055c1.247,0 2.483,-0.509 3.701,-1.522c1.218,-1.017 1.827,-2.182 1.827,-3.497c0,-1.59 -0.415,-2.778 -1.244,-3.555c-0.827,-0.775 -1.868,-1.167 -3.12,-1.167c-1.45,0 -2.782,0.481 -3.981,1.446c-1.201,0.965 -1.803,2.192 -1.803,3.679c0,1.049 0.383,2.077 1.145,3.094c0.761,1.013 1.918,1.522 3.475,1.522Zm415.846,49.303c-0.908,1.655 -1.842,2.917 -2.792,3.778c-0.942,0.865 -1.985,1.563 -3.116,2.105c-1.13,0.542 -2.064,0.885 -2.789,1.039c-0.729,0.154 -1.394,0.232 -2.004,0.232c-1.353,0 -2.654,-0.257 -3.909,-0.762c-1.245,-0.509 -2.415,-1.272 -3.499,-2.284c-1.081,-1.017 -1.943,-2.415 -2.579,-4.212c-0.65,-1.791 -0.971,-3.854 -0.971,-6.186c0,-2.468 0.279,-4.709 0.836,-6.72c0.562,-2.012 1.298,-3.686 2.213,-5.02c0.909,-1.338 1.986,-2.463 3.215,-3.375c1.233,-0.912 2.497,-1.563 3.783,-1.954c1.285,-0.386 2.601,-0.581 3.954,-0.581c2.168,0 4.044,0.456 5.629,1.364c1.592,0.916 2.657,2.098 3.199,3.555c-0.743,0.606 -1.352,1.44 -1.827,2.486c-0.474,1.05 -0.708,2.111 -0.708,3.195c0.27,2.736 1.421,5.273 3.444,7.607c-0.467,2.166 -1.163,4.078 -2.079,5.733Zm-77.351,-90.086c0,-2.975 0.201,-5.535 0.609,-7.684c0.407,-2.15 0.972,-3.82 1.701,-5.024c0.725,-1.196 1.521,-2.06 2.384,-2.586c0.86,-0.523 1.817,-0.785 2.863,-0.785c1.286,0 2.58,0.407 3.88,1.219c1.304,0.81 2.489,1.927 3.554,3.345c1.066,1.42 1.925,3.191 2.583,5.303c0.666,2.113 0.994,4.336 0.994,6.669c0,11.127 -6.188,28.406 -18.568,51.841l0,-52.298Zm98.036,82.004l-0.7,1.13c-0.709,1.251 -2.28,1.88 -4.712,1.88c-1.799,0 -3.993,-0.844 -6.597,-2.538c0.234,-1.824 0.355,-3.753 0.355,-5.782c0,-0.202 -0.008,-0.437 -0.026,-0.709c-0.015,-0.27 -0.116,-0.752 -0.303,-1.448c-0.183,-0.69 -0.434,-1.308 -0.737,-1.849c-0.306,-0.542 -0.784,-1.046 -1.443,-1.521c-0.662,-0.475 -1.45,-0.763 -2.362,-0.865c0.882,-0.436 1.525,-0.911 1.929,-1.42c0.408,-0.505 0.493,-0.964 0.254,-1.372c-1.353,-2.399 -3.307,-4.255 -5.86,-5.576c-2.553,-1.319 -5.266,-1.977 -8.141,-1.977c-1.925,0 -3.831,0.279 -5.704,0.833c-1.877,0.561 -3.678,1.455 -5.405,2.691c-1.719,1.237 -3.244,2.733 -4.562,4.49c-1.32,1.757 -2.386,3.932 -3.197,6.518c-0.81,2.587 -1.252,5.419 -1.323,8.496l0,0.111c-5.648,9.803 -10.732,14.701 -15.265,14.701c-2.094,0 -3.686,-0.27 -4.765,-0.814c-1.084,-0.539 -1.933,-1.739 -2.534,-3.601c-0.61,-1.857 -0.916,-4.631 -0.916,-8.315c0,-5.652 -0.187,-10.003 -0.562,-13.064c-0.365,-3.061 -1.113,-5.554 -2.227,-7.479c-1.764,-3.079 -4.351,-4.616 -7.76,-4.616c-2.232,0 -4.746,0.618 -7.535,1.847c-2.792,1.237 -5.434,3.155 -7.938,5.755l0,-4.462c8.422,-15.246 14.652,-27.854 18.692,-37.815c4.041,-9.957 6.059,-18.218 6.059,-24.776c0,-3.414 -0.524,-6.59 -1.571,-9.535c-1.047,-2.941 -2.418,-5.379 -4.111,-7.307c-1.69,-1.926 -3.572,-3.429 -5.654,-4.513c-2.08,-1.084 -4.164,-1.621 -6.262,-1.621c-1.456,0 -2.814,0.236 -4.085,0.706c-1.268,0.475 -2.477,1.278 -3.621,2.411c-1.152,1.135 -2.136,2.546 -2.947,4.236c-0.81,1.691 -1.461,3.83 -1.954,6.416c-0.489,2.587 -0.732,5.506 -0.732,8.75l0,63.559c-0.408,0.267 -1.193,0.82 -2.359,1.645c-1.166,0.83 -2.071,1.456 -2.713,1.88c-0.643,0.419 -1.521,0.988 -2.638,1.698c-1.115,0.71 -2.101,1.259 -2.947,1.649c-0.841,0.388 -1.776,0.787 -2.787,1.191c-1.01,0.408 -2.004,0.688 -2.969,0.838c-0.964,0.149 -1.884,0.18 -2.762,0.078c0.202,-1.356 0.303,-2.299 0.303,-2.845c0,-0.504 -0.052,-1.162 -0.153,-1.977c-0.441,-3.076 -1.436,-5.308 -2.994,-6.693c-1.518,-1.324 -2.99,-1.422 -4.411,-0.307c-2.026,1.592 -3.043,4.97 -3.043,10.143c0,2.471 1.099,4.399 3.298,5.786c-0.95,3.278 -2.31,6.482 -4.083,9.61c-1.779,3.133 -3.82,5.749 -6.137,7.861c-2.317,2.118 -4.522,3.173 -6.622,3.173c-4.498,-0.306 -7.453,-4.867 -8.873,-13.695c-0.644,-3.921 -1.032,-10.144 -1.167,-18.67c0.068,-1.315 0.101,-2.534 0.101,-3.652c-0.811,-0.302 -1.746,-0.456 -2.792,-0.456c-0.912,0 -2.044,0.154 -3.395,0.456c0,2.875 -0.231,6.224 -0.687,10.047c-0.46,3.821 -1.113,7.734 -1.979,11.741c-0.862,4.005 -2.078,7.381 -3.652,10.117c-1.571,2.744 -3.324,4.112 -5.25,4.112c-1.826,-0.134 -3.365,-0.923 -4.616,-2.359c-1.251,-1.439 -2.19,-3.255 -2.814,-5.453c-0.626,-2.198 -1.158,-4.608 -1.6,-7.229c-0.439,-2.62 -0.856,-5.233 -1.24,-7.833c-0.389,-2.606 -0.856,-4.983 -1.396,-7.128c-0.544,-2.147 -1.344,-3.887 -2.412,-5.225c-1.063,-1.335 -2.391,-2.004 -3.981,-2.004c-0.371,0.068 -0.776,0.138 -1.216,0.202c-0.337,0.034 -0.51,0.067 -0.51,0.104c-0.033,0.035 -0.133,0.082 -0.302,0.153c-2.097,0.875 -4.406,3.133 -6.923,6.77c-2.519,3.637 -5.723,8.87 -9.615,15.693c0.441,1.119 1.048,1.94 1.829,2.464c0.778,0.527 1.893,0.788 3.345,0.788l2.386,-4.213c1.587,-2.773 3.476,-5.8 5.656,-9.073c2.181,-3.282 3.862,-5.379 5.047,-6.295c0.439,0.845 0.83,2.082 1.167,3.701c0.339,1.626 0.607,3.348 0.81,5.18c0.204,1.82 0.474,3.827 0.815,6.006c0.331,2.183 0.708,4.287 1.113,6.317c0.405,2.03 1.007,3.999 1.804,5.909c0.793,1.91 1.715,3.574 2.763,4.994c1.045,1.42 2.419,2.56 4.106,3.428c1.692,0.858 3.62,1.291 5.784,1.291c1.554,0 3.029,-0.424 4.413,-1.269c1.384,-0.845 2.641,-2.045 3.754,-3.604c1.115,-1.551 2.132,-3.284 3.044,-5.195c0.914,-1.911 1.74,-4.052 2.48,-6.417c0.378,2.534 0.889,4.765 1.556,6.698c0.657,1.924 1.525,3.639 2.609,5.146c1.084,1.502 2.444,2.658 4.081,3.446c1.638,0.797 3.558,1.195 5.757,1.195c2.399,0 4.821,-0.739 7.255,-2.208c2.437,-1.469 4.627,-3.405 6.565,-5.804c1.945,-2.404 3.691,-5.057 5.227,-7.965c1.54,-2.908 2.747,-5.869 3.626,-8.877c1.995,0.37 5.168,-0.274 9.516,-1.929c4.342,-1.655 7.954,-3.786 10.828,-6.392l0,32.515l6.186,0l0,-24.703c0.033,-0.029 0.067,-0.086 0.105,-0.149c1.285,-2.433 2.736,-4.506 4.361,-6.216c1.622,-1.708 3.178,-2.93 4.665,-3.677c1.483,-0.743 2.732,-1.26 3.726,-1.548c0.999,-0.289 1.869,-0.43 2.616,-0.43c1.69,0 2.841,1.465 3.447,4.388c0.606,2.924 0.912,7.786 0.912,14.585c0,6.69 1.05,11.437 3.148,14.224c2.092,2.789 5.814,4.186 11.156,4.186c5.73,0 11.314,-3.822 16.756,-11.338c0.049,0.133 0.084,0.275 0.135,0.407c1.015,2.591 2.362,4.649 4.036,6.19c1.672,1.54 3.499,2.702 5.477,3.498c1.976,0.792 4.013,1.196 6.11,1.196c0.949,0 1.982,-0.112 3.096,-0.337c1.113,-0.216 2.414,-0.657 3.905,-1.314c1.492,-0.662 2.893,-1.515 4.212,-2.561c1.316,-1.047 2.602,-2.493 3.849,-4.34c1.257,-1.844 2.27,-3.948 3.051,-6.317c2.699,1.525 5.255,2.288 7.656,2.288c2.189,0 4.062,-0.282 5.619,-0.844l-0.002,-8.001Zm-265.569,3.467c-0.223,1.318 -0.651,2.698 -1.293,4.134c-0.644,1.438 -1.474,2.679 -2.485,3.726c-1.015,1.05 -2.404,1.913 -4.16,2.586c-1.757,0.681 -3.791,1.015 -6.091,1.015c-1.413,-0.069 -2.761,-0.481 -4.029,-1.242c-1.27,-0.76 -2.344,-1.69 -3.224,-2.789c-0.88,-1.1 -1.637,-2.284 -2.28,-3.55c-0.643,-1.269 -1.118,-2.453 -1.419,-3.552c-0.308,-1.098 -0.506,-2.012 -0.61,-2.746c-0.067,-0.471 -0.607,-3.015 -0.607,-4.176c1.993,-2.743 8.67,-10.25 8.67,-10.25c0.27,-0.402 0.841,-0.829 1.702,-1.266c0.865,-0.436 1.797,-0.662 2.816,-0.662c1.589,0 3.145,0.281 4.667,0.842c1.522,0.557 2.951,1.401 4.284,2.535c1.337,1.134 2.4,2.665 3.193,4.589c0.796,1.929 1.194,4.145 1.194,6.645c0,1.454 -0.11,2.841 -0.328,4.161Zm-69.619,-72.228c0,-8.42 0.321,-14.98 0.963,-19.686c0.646,-4.695 1.647,-8.029 3.017,-9.991c1.37,-1.963 3.257,-2.941 5.657,-2.941c1.114,0 2.317,0.44 3.602,1.315c1.287,0.881 2.552,2.175 3.804,3.883c1.253,1.705 2.29,4.082 3.12,7.125c0.831,3.045 1.244,6.463 1.244,10.248c0,5.92 -1.668,13.774 -4.998,23.559c-3.331,9.792 -8.161,20.86 -14.479,33.198c-1.288,-12.846 -1.93,-28.417 -1.93,-46.71Zm-132.785,72.937c-0.441,1.757 -1.504,3.525 -3.196,5.3c-1.691,1.775 -3.652,3.219 -5.882,4.335c-2.232,1.115 -4.296,1.676 -6.19,1.676c-0.944,0 -1.944,-0.135 -2.992,-0.408c-1.048,-0.265 -2.148,-0.754 -3.296,-1.469c-1.152,-0.709 -2.179,-1.581 -3.07,-2.611c-0.899,-1.033 -1.642,-2.393 -2.232,-4.083c-0.591,-1.69 -0.888,-3.565 -0.888,-5.633c0,-2.639 0.268,-4.974 0.812,-7.023c0.541,-2.043 1.26,-3.71 2.155,-4.997c0.895,-1.286 1.986,-2.339 3.272,-3.169c1.282,-0.831 2.61,-1.413 3.982,-1.75c1.369,-0.336 2.832,-0.507 4.39,-0.507c1.791,0 3.688,0.534 5.706,1.595c2.009,1.066 3.752,2.618 5.224,4.646c1.47,2.026 2.205,4.222 2.205,6.588l0,7.51Zm226.521,-2.306c-0.775,-0.524 -1.892,-0.789 -3.345,-0.789c-1.184,2.13 -2.561,4 -4.135,5.608c-1.573,1.603 -3.196,2.854 -4.867,3.751c-1.673,0.894 -3.273,1.593 -4.796,2.082c-1.523,0.49 -3.044,0.805 -4.567,0.939c2.741,-3.862 4.11,-8.574 4.11,-14.155c0,-3.042 -0.467,-5.835 -1.397,-8.368c-0.929,-2.538 -2.155,-4.605 -3.675,-6.215c-1.522,-1.605 -3.237,-2.838 -5.146,-3.701c-1.913,-0.863 -3.883,-1.294 -5.909,-1.294c-1.119,0 -2.337,0.273 -3.655,0.812l1.726,-2.943c-0.507,-1.184 -1,-2.103 -1.471,-2.765c-0.476,-0.658 -1.136,-1.226 -1.98,-1.697c-1.186,1.518 -3.418,4.317 -6.697,8.392c-3.279,4.077 -6.058,7.618 -8.342,10.629c-2.282,3.009 -6.213,8.876 -6.213,8.876c0.007,0.021 -3.534,5.563 -5.227,7.559c-1.687,1.996 -3.287,3.456 -4.792,4.388c-1.508,0.926 -2.839,1.555 -4.006,1.876c-1.168,0.321 -2.411,0.481 -3.73,0.481c-5.579,0 -9.703,-8.928 -12.376,-26.782c7.575,-14.032 13.512,-26.92 17.804,-38.652c4.295,-11.733 6.443,-21.301 6.443,-28.71c0,-4.668 -0.567,-8.891 -1.699,-12.682c-1.134,-3.786 -2.604,-6.806 -4.413,-9.053c-1.812,-2.25 -3.728,-3.965 -5.759,-5.15c-2.03,-1.181 -4.024,-1.772 -5.985,-1.772c-1.657,0 -3.18,0.25 -4.562,0.759c-1.388,0.508 -2.59,1.151 -3.604,1.929c-1.016,0.777 -1.918,1.842 -2.714,3.195c-0.792,1.353 -1.454,2.68 -1.976,3.981c-0.524,1.304 -0.975,2.96 -1.347,4.971c-0.373,2.012 -0.657,3.812 -0.861,5.405c-0.203,1.589 -0.355,3.588 -0.458,6.006c-0.098,2.422 -0.161,4.455 -0.174,6.116c-0.023,1.655 -0.026,3.766 -0.026,6.342c0,11.12 0.176,21.323 0.528,30.607c0.356,9.286 1.13,17.902 2.313,25.848l-7.611,13.287c0.017,0.041 0.041,0.066 0.058,0.106c-0.022,0 -0.036,-0.006 -0.058,-0.006c-2.637,4.535 -5.671,8.09 -9.106,10.679c-3.43,2.586 -6.652,3.88 -9.66,3.88c-1.286,0 -2.419,-0.22 -3.402,-0.658c-0.981,-0.44 -1.792,-1.057 -2.435,-1.854c-0.642,-0.793 -1.192,-1.734 -1.646,-2.814c-0.454,-1.081 -0.777,-2.276 -0.966,-3.578c-0.185,-1.3 -0.347,-2.687 -0.481,-4.156c-0.133,-1.472 -0.195,-2.979 -0.179,-4.518c0.018,-1.537 0.025,-3.084 0.025,-4.64l0,-2.892c0,-1.316 -0.014,-2.373 -0.049,-3.17c-0.035,-0.795 -0.112,-1.674 -0.229,-2.634c-0.12,-0.965 -0.314,-1.72 -0.581,-2.257c-0.272,-0.542 -0.616,-1.073 -1.042,-1.597c-0.421,-0.53 -0.973,-0.915 -1.645,-1.17c-0.679,-0.254 -1.49,-0.415 -2.44,-0.482l-1.162,0c-2.201,0 -6.208,0.359 -12.022,1.064c0.034,-0.536 0.05,-1.082 0.05,-1.62c0,-1.492 -0.188,-2.802 -0.558,-3.933c-0.372,-1.133 -0.794,-1.969 -1.267,-2.511c-0.475,-0.539 -1,-0.987 -1.574,-1.343c-0.577,-0.355 -0.996,-0.567 -1.267,-0.634c-0.271,-0.065 -0.457,-0.103 -0.559,-0.103c-1.354,0 -2.546,0.899 -3.58,2.689c-1.029,1.791 -1.542,3.771 -1.542,5.932c0,3.18 1.131,5.396 3.399,6.649c-0.508,2.297 -1.327,4.616 -2.46,6.948c-1.134,2.332 -2.734,5.206 -4.797,8.623c0.015,0.039 0.04,0.064 0.056,0.103c-0.019,0 -0.032,-0.006 -0.051,-0.006c-2.977,5.147 -5.952,8.873 -8.93,11.19c-2.976,2.314 -5.783,3.472 -8.42,3.472c-2.601,0 -4.749,-1.038 -6.44,-3.117c-1.694,-2.081 -2.538,-4.895 -2.538,-8.447c0,-2.163 0.06,-6.141 0.176,-11.92c0.118,-5.782 0.179,-10.262 0.179,-13.44c-0.306,-0.033 -0.68,-0.104 -1.141,-0.205c-0.455,-0.102 -0.86,-0.18 -1.215,-0.228c-0.357,-0.048 -0.74,-0.075 -1.142,-0.075c-0.95,0 -1.879,0.169 -2.791,0.508c-0.201,1.862 -0.913,4.206 -2.131,7.049c-1.218,2.841 -2.307,5.121 -3.268,6.847c-0.967,1.724 -2.549,4.48 -4.746,8.269c0.069,0.174 -6.456,11.805 -12.163,19.932l0,-42.605c-1.861,-0.916 -3.925,-0.576 -6.19,1.013l0,4.668c-1.692,-1.962 -3.696,-3.491 -6.011,-4.59c-2.319,-1.098 -4.69,-1.651 -7.124,-1.651c-2.91,0 -5.588,0.466 -8.042,1.398c-2.452,0.93 -4.636,2.317 -6.545,4.156c-1.911,1.845 -3.405,4.298 -4.486,7.355c-1.084,3.061 -1.625,6.604 -1.625,10.626c0,2.774 0.397,5.319 1.194,7.636c0.792,2.314 1.824,4.234 3.09,5.757c1.269,1.521 2.735,2.814 4.39,3.88c1.655,1.064 3.316,1.835 4.969,2.31c1.662,0.47 3.299,0.705 4.922,0.705c2.606,0 5.282,-0.631 8.042,-1.898c2.755,-1.271 5.163,-2.968 7.226,-5.099l0,15.015c-2.232,3.11 -4.042,5.663 -5.428,7.658c-1.389,1.997 -3.077,4.493 -5.071,7.483c-1.998,2.994 -3.613,5.554 -4.846,7.681c-1.232,2.134 -2.56,4.553 -3.979,7.26c-1.42,2.701 -2.531,5.134 -3.327,7.303c-0.792,2.161 -1.456,4.41 -2.001,6.746c-0.541,2.332 -0.811,4.511 -0.811,6.54c0,4.022 0.293,7.541 0.888,10.552c0.592,3.009 1.343,5.353 2.257,7.023c0.915,1.675 2.027,3.009 3.349,4.009c1.318,1 2.568,1.651 3.755,1.954c1.179,0.305 2.484,0.459 3.904,0.459c2.197,0 4.184,-0.426 5.959,-1.271c1.771,-0.848 3.255,-1.98 4.436,-3.401c1.186,-1.42 2.235,-3.083 3.147,-4.994c0.913,-1.909 1.599,-3.943 2.056,-6.085c0.453,-2.152 0.86,-4.358 1.216,-6.623c0.355,-2.265 0.552,-4.464 0.581,-6.593c0.036,-2.127 0.088,-4.141 0.153,-6.037c0.071,-1.895 0.055,-3.532 -0.048,-4.919l0,-32.972c7.91,-11.394 17.594,-27.304 17.523,-27.453c1.885,-3.014 3.587,-6.135 5.088,-9.373c-0.033,1.115 -0.149,2.752 -0.352,4.897c-0.202,2.149 -0.305,3.731 -0.305,4.743c0,5.412 1.35,9.61 4.057,12.605c2.706,2.994 6.188,4.488 10.452,4.488c2.564,0 5.128,-0.53 7.68,-1.596c2.554,-1.066 5.219,-2.901 7.993,-5.503c2.771,-2.604 5.309,-5.887 7.606,-9.84c-0.017,-0.043 -0.043,-0.069 -0.06,-0.111c0.022,0 0.037,0.006 0.059,0.006c4.126,-6.828 6.813,-12.779 8.063,-17.852c0.778,-0.033 2.719,-0.205 5.807,-0.508c3.096,-0.306 5.471,-0.455 7.131,-0.455c0.238,0 0.436,0.014 0.608,0.047c0.165,0.682 0.269,1.396 0.303,2.158c0.035,0.761 0.05,2.512 0.05,5.251c0,1.925 0.019,3.574 0.049,4.946c0.035,1.367 0.103,2.921 0.204,4.663c0.102,1.743 0.255,3.23 0.459,4.464c0.201,1.237 0.482,2.564 0.837,3.984c0.357,1.419 0.778,2.609 1.268,3.577c0.489,0.963 1.106,1.909 1.852,2.836c0.743,0.932 1.58,1.679 2.511,2.232c0.924,0.562 2.028,1.017 3.295,1.372c1.267,0.354 2.648,0.533 4.134,0.533c4.262,0 8.658,-1.528 13.188,-4.592c4.532,-3.061 8.337,-7.243 11.415,-12.551c-0.017,-0.043 -0.043,-0.069 -0.06,-0.111c0.021,0.001 0.035,0.006 0.055,0.006l4.114,-7.049c3.55,16.165 9.283,24.247 17.193,24.247c1.421,0 2.743,-0.113 3.956,-0.33c1.219,-0.22 2.63,-0.684 4.237,-1.398c1.606,-0.706 3.154,-1.663 4.641,-2.863c1.486,-1.2 3.113,-2.86 4.869,-4.972c1.759,-2.111 5.129,-7.598 5.112,-7.638c0.023,0 0.569,-0.857 0.569,-0.857c-0.171,1.997 0.143,4.033 0.939,6.111c0.792,2.083 1.936,3.954 3.424,5.629c1.487,1.676 3.306,3.069 5.45,4.187c2.148,1.114 4.371,1.726 6.672,1.827c4.263,0 7.933,-0.866 11.008,-2.59c0.574,1.118 1.726,1.573 3.448,1.371c2.979,0 5.876,-0.441 8.7,-1.319c2.825,-0.881 5.783,-2.527 8.877,-4.946c3.096,-2.417 5.773,-5.519 8.042,-9.31c-0.442,-1.114 -1.049,-1.932 -1.83,-2.455Zm-226.521,60.132c0,2.538 -0.014,4.685 -0.05,6.441c-0.034,1.756 -0.102,3.845 -0.203,6.264c-0.103,2.418 -0.265,4.47 -0.482,6.163c-0.222,1.693 -0.505,3.503 -0.86,5.428c-0.358,1.929 -0.811,3.532 -1.37,4.818c-0.56,1.285 -1.219,2.496 -1.981,3.629c-0.761,1.132 -1.682,1.966 -2.762,2.512c-1.082,0.538 -2.285,0.81 -3.602,0.81c-1.187,0 -2.232,-0.216 -3.145,-0.635c-0.912,-0.422 -1.651,-1.076 -2.21,-1.952c-0.554,-0.881 -1.022,-1.812 -1.394,-2.791c-0.37,-0.979 -0.642,-2.224 -0.811,-3.727c-0.168,-1.506 -0.278,-2.881 -0.328,-4.133c-0.049,-1.253 -0.077,-2.778 -0.077,-4.569c0,-2.567 0.475,-5.354 1.42,-8.368c0.946,-3.009 2.384,-6.309 4.313,-9.89c1.925,-3.585 3.905,-6.982 5.932,-10.197c2.03,-3.209 4.568,-7.053 7.61,-11.515l0,21.712Z" style="fill:#72c8b0;fill-rule:nonzero;"/><path d="M238.673,163.103l101.75,0l0,98.712l-101.75,0l0,-98.712Zm-14.285,112.897l128.755,0l0,-127.076l-128.755,0l0,127.076Zm272.995,-12.617l-100.18,0l0,-100.274l82.763,0l0,-14.185l-97.052,0l0,127.076l128.761,0l0,-189.648l-14.292,0l0,177.031Zm75.758,-87.598l0,14.18l97.057,0l0,-41.041l-128.761,0l0,127.076l128.761,0l0,-14.185l-114.469,0l0,-98.712l100.183,0l0,12.682l-82.771,0Zm-507.282,100.215l128.757,0l0,-14.18l-114.473,0l0,-98.711l114.473,0l0,-14.185l-128.757,0l0,127.076Z" style="fill:#ece814;fill-rule:nonzero;"/></g></svg>