<?xml version="1.0" encoding="UTF-8" standalone="no"?><!DOCTYPE svg PUBLIC "-//W3C//DTD SVG 1.1//EN" "http://www.w3.org/Graphics/SVG/1.1/DTD/svg11.dtd"><svg width="100%" height="100%" viewBox="0 0 500 500" version="1.1" xmlns="http://www.w3.org/2000/svg" xmlns:xlink="http://www.w3.org/1999/xlink" xml:space="preserve" xmlns:serif="http://www.serif.com/" style="fill-rule:evenodd;clip-rule:evenodd;stroke-linejoin:round;stroke-miterlimit:1.41421;"><g id="Full-Color-Logo" serif:id="Full Color Logo"><path d="M450.443,353.77l-16.631,0l0,-16.63l16.631,0l0,16.63Zm-101.427,-47.177l-16.63,0l0,-16.631l16.63,0l0,16.631Zm-16.637,16.615l-16.633,0l0,-16.615l-16.626,0l0,-16.631l16.63,0l0,16.615l16.629,0l0,16.631Zm160.419,20.205c0.744,5.961 -9.817,21.252 -19.607,13.312c-9.791,-7.938 -2.977,-22.826 -2.977,-22.826c4.856,-8.209 14.093,-36.709 0.257,-54.581c0,0 15.144,8.061 17.677,31.392c0.903,-5.443 1.111,-11.099 0.538,-16.857c-3.107,-31.172 -22.873,-57.723 -55.163,-58.323c-6.831,-0.128 -13.647,1.046 -20.06,3.409c-3.628,1.335 -7.523,3.196 -10.428,5.687c3.816,-9.296 8.833,-15.361 8.833,-15.361c-23.881,9.467 -35.223,33.194 -39.79,46.134c-1.606,-1.535 -3.331,-3.029 -5.197,-4.476c-13.107,-10.182 -29.191,-13.642 -33.808,-14.462c-5.319,-0.943 -10.032,-2.847 -14.008,-5.663c-17.538,-12.41 -14.7,-36.251 -14.664,-36.583c-0.007,-1.035 -0.022,-2.051 -0.047,-3.055c-0.143,-5.743 0.446,-11.461 1.64,-17.081c1.57,-7.382 2.475,-14.935 2.701,-22.548c0.685,-22.977 -3.803,-52.883 -25.447,-77.893c-41.679,-48.163 -99.104,-50.479 -141.248,-27.324c-8.167,5.159 -14.727,10.864 -20.031,16.75c-3.342,-1.906 -7.269,-3.57 -11.262,-4.227c-3.228,-2.864 -10.147,-7.651 -15.554,-8.731c-1.682,-0.342 -4.04,-1.657 -6.132,-2.826c-2.787,-1.555 -5.419,-3.024 -8.129,-3.324c-0.186,-0.02 -0.374,-0.036 -0.555,-0.043c-0.139,-0.006 -0.278,-0.011 -0.415,-0.011c-2.757,0 -5.144,1.339 -6.551,3.676c-2.421,4.036 -1.084,8.135 3.971,12.178l0.092,0.076c0.17,0.136 0.329,0.262 0.45,0.367c1.098,0.961 3.703,3.456 4.415,4.133c6.973,8.695 12.655,12.39 15.531,13.853c2.726,4.531 5.77,7.649 8.482,9.806c-7.389,18.203 -6.128,33.154 -6.128,33.154c-15.614,22.748 -2.417,49.879 -2.417,49.879c1.555,-11.399 7.17,-21.021 15.628,-28.437c2.23,-1.955 4.658,-3.754 7.261,-5.396c-1.881,12.716 -7.342,28.33 -21.614,40.328c-28.836,24.24 -42.058,70.007 37.638,86.348c0,0 4.276,1.026 11.495,2.032c0.548,7.185 -0.652,15.289 -3.573,23.709c-0.398,1.146 -0.806,2.298 -1.214,3.447c-3.669,10.334 -7.463,21.023 -3.736,30c0.858,2.065 1.622,3.983 2.325,5.75c3.953,9.922 6.811,17.09 14.682,17.09c2.578,0 5.062,-0.907 7.813,-2.854c9.45,-6.688 18.351,-27.843 10.505,-50.116c-0.016,-0.054 -1.049,-4.079 -1.324,-8.294c0.396,1.451 0.849,3.12 1.301,4.806l0.065,0.236c1.326,4.952 5.362,20.021 19.328,21.005c3.303,0 8.545,-1.006 13.224,-3.73c-3.949,6.749 -11.403,11.155 -14.228,12.824c-5.333,3.153 -10.847,6.414 -13.069,16.7c-2.233,10.328 2.477,15.676 6.632,20.393l0.443,0.504c3.345,3.786 6.805,7.701 8.74,15.921c0.457,1.942 0.89,3.832 1.311,5.671c0.336,1.47 0.658,2.926 0.978,4.366c3.649,16.402 6.801,30.567 21.796,39.82c2.056,1.368 4.393,2.092 6.765,2.092c2.45,0 4.929,-0.775 7.174,-2.242c8.345,-5.472 13.882,-21.18 11.616,-32.955c-1.156,-6.001 -5.967,-11.464 -11.059,-17.245c-0.972,-1.104 -1.957,-2.224 -2.938,-3.368c-5.006,-5.844 -15.421,-18.009 -13.815,-23.897c3.084,-11.325 14.173,-15.894 43.858,-23.086c0,0 0.685,-0.161 1.626,-0.403c0.076,-0.02 0.152,-0.029 0.224,-0.029c0.367,0 0.616,0.246 0.726,0.474c0.067,0.139 0.19,0.5 -0.103,0.865c-7.105,8.861 -10.935,16.38 -11.386,22.345c-0.345,4.553 0.896,8.437 3.685,11.546c4.477,4.988 12.812,5.407 20.967,5.407l3.053,-0.007c1.207,0 2.37,0.009 3.487,0.045c2.303,0.076 4.478,0.148 6.059,0.334c0.883,0.103 1.01,0.331 1.172,0.616c1.057,1.874 0.996,9.826 -3.9,20.548c-9.013,19.751 -8.964,33.096 0.177,47.601c4.836,7.669 10.442,9.28 14.292,9.28c4.021,0 7.808,-1.754 10.953,-5.069c4.802,-5.06 6.888,-14.19 6.205,-27.131c-0.41,-7.739 -1.716,-13.509 -2.87,-18.6c-1.874,-8.276 -3.008,-13.271 1.432,-22.078c0.745,-1.483 1.563,-2.878 2.354,-4.229c1.097,-1.875 2.154,-3.675 2.822,-5.416c0.251,0.782 0.506,1.535 0.766,2.267c4.598,12.904 12.921,18.794 19.612,23.527c1.07,0.757 2.132,1.465 3.167,2.157c5.14,3.427 9.582,6.386 10.816,12.859c1.77,9.282 0.435,18.391 -0.855,27.205c-0.334,2.289 -0.782,4.599 -1.217,6.832c-1.397,7.198 -2.717,13.999 -0.598,20.342c0.567,2.038 3.889,12.379 13.674,15.728c1.326,0.452 2.713,0.681 4.12,0.681c2.273,0 4.52,-0.605 6.499,-1.749c5.479,-3.168 18.002,-12.582 15.964,-31.546l-0.39,-3.275c-0.6,-5.024 -1.407,-13.269 -1.839,-18.308c-1.993,-23.232 -9.674,-40.897 -22.27,-51.172c-0.946,-0.77 -1.736,-1.628 -2.348,-2.544c-1.66,-2.491 -1.158,-3.452 2.108,-9.703c0.526,-1.008 1.129,-2.103 1.789,-3.299c4.859,-8.819 12.994,-23.575 15.433,-49.978c1.196,-12.944 -1.01,-23.785 -6.834,-33.111c8.413,-2.641 24.347,-4.52 31.445,15.41c0,0 1.064,-4.186 -0.676,-12.729c0,0 14.989,10.619 6.892,39.41c-2.54,9.031 -2.742,18.1 -0.757,26.244l16.577,0l0,16.631l-8.236,0c7.456,8.76 19.088,14.164 34.484,13.43c34.514,-1.651 35.343,-31.992 32.722,-40.441Z" style="fill:#432b69;fill-rule:nonzero;"/><path d="M349.016,306.593l-16.63,0l0,-16.631l16.63,0l0,16.631Zm-16.637,16.615l-16.633,0l0,-16.615l-16.626,0l0,-16.631l16.63,0l0,16.615l16.629,0l0,16.631Zm-57.851,-77.42c-0.994,19.289 -5.18,25.845 -9.649,33.206c0,0 9.264,-30.959 1.832,-65.648c0,0 8.812,13.152 7.817,32.442Zm-65.284,-68.812c-2.307,1.196 -5.597,2.17 -10.274,2.638c-18.694,1.873 -19.511,24.352 -19.511,24.352c0,0 -4.608,-18.154 8.385,-27.351c0.319,-0.224 0.637,-0.41 0.955,-0.614c-2.97,0.854 -6.146,2.292 -8.624,4.733c0,0 2.061,-7.488 20.275,-13.096c5.011,-1.543 8.444,-5.631 10.234,-10.68c0,0 1.843,8.189 -7.107,14.611c3.75,-0.589 7.338,-1.351 10.646,-3.774c0,0 1.933,5.592 -4.979,9.181Zm-26.665,63.345c-1.291,0.942 -2.715,1.435 -3.965,1.471c-0.517,0.016 -0.602,-0.723 -0.098,-0.833c0.504,-0.112 1.021,-0.298 1.529,-0.565c0.406,-0.215 0.762,-0.47 1.087,-0.743c-1.418,0.419 -2.764,0.199 -3.43,-0.712c-0.96,-1.32 -0.141,-3.553 1.833,-4.991c1.971,-1.438 4.347,-1.534 5.308,-0.215c0.036,0.047 0.052,0.105 0.083,0.155l0.02,-0.018c1.243,1.704 0.184,4.594 -2.367,6.451Zm-7.535,-143.449c29.989,3.114 35.839,28.095 35.049,30.283c-15.473,-21.473 -35.049,-30.283 -35.049,-30.283Zm212.78,360.791c-0.78,-6.592 -1.633,-13.179 -2.099,-19.805c-2.143,-30.618 -11.923,-43.52 -16.532,-47.972c-2.433,-2.35 -4.44,-5.116 -5.768,-8.221l-0.004,0.021c0,0 -6.037,-10.738 -1.655,-20.3c0,0 -0.294,5.862 1.493,9.808c2.292,-6.782 7.683,-17.703 10.539,-48.607c4.007,-43.347 -32.527,-53.751 -49.138,-56.24c-15.213,-2.275 -27.655,-13.002 -31.313,-27.617c-1.91,-7.64 -2.327,-15.116 -2.358,-19.813c-0.043,-6.344 -0.412,-12.685 -1.313,-18.949c-2.887,-20.098 -8.177,-35.361 -14.924,-46.947c0,0 -10.025,-14.147 -30.083,-22.856c-4.146,-1.8 -8.93,0.206 -10.632,4.393c-0.251,0.62 -0.495,1.252 -0.733,1.895c-8.144,22.741 3.931,30.788 3.931,30.788c-24.204,-8.816 -19.798,-36.466 -19.798,-36.466c0,0 -0.015,-0.036 -0.047,-0.094c-0.661,-4.688 -2.235,-10.644 -5.926,-16.835c-1.125,-2.074 -2.514,-4.2 -4.14,-6.292c-21.227,-25.4 -45.439,-15.84 -45.439,-15.84c2.806,4.849 7.906,14.698 17.712,23.995c6.93,6.021 12.882,9.854 17.673,14.568c0.607,0.598 1.194,1.21 1.762,1.839c1.239,1.376 2.384,2.856 3.439,4.489c0.002,0.002 0.004,0.007 0.006,0.009c1.138,1.76 2.173,3.7 3.089,5.915c-1.362,-1.362 -3.189,-2.829 -4.984,-4.159c-0.918,0.869 -1.87,1.792 -2.889,2.831c-14.463,13.865 -35.69,12.109 -45.016,9.92c0,0 28.217,-5.893 36.016,-25.731c0,0 -5.413,6.406 -15.811,12.447c-6.475,3.763 -14.888,7.382 -25.131,9.226c-2.069,0.372 -4.083,0.833 -6.067,1.337c-2.791,10.471 -0.713,21.764 0.394,29.628c0.679,4.83 3.306,9.119 7.17,12.096c22.337,17.726 15.065,47.437 15.065,47.437c0,0 -0.65,7.66 7.382,12.191c2.668,1.506 5.739,2.18 8.839,2.287c12.469,0.426 18.725,-6.011 18.476,-13.84c-0.627,-3.301 0.865,-6.717 3.698,-8.681c0.625,-0.242 1.214,-0.493 1.808,-0.744c11.36,-3.012 20.837,-10.628 26.291,-20.727c0,0.004 0,0.011 0.002,0.018c2.811,-5.271 4.417,-11.276 4.417,-17.661c0,-8.467 -2.798,-16.284 -7.521,-22.58c8.135,5.402 11.9,15.688 11.9,25.868c0,1.836 -0.157,3.83 -0.45,5.893c-0.796,5.563 -2.619,10.934 -5.172,15.941c-1.189,2.331 -2.701,5.642 -3.942,9.396c-1.187,5.469 -3.344,11.445 -6.906,17.717c-2.699,4.75 -5.295,10.216 -7.246,16.12c-0.385,1.167 -0.739,2.352 -1.068,3.55c-0.025,0.027 -0.047,0.056 -0.072,0.081c-3.427,12.408 -3.72,26.425 3.752,39.73l-0.159,0.123c-6.934,-6.059 -11.837,-16.917 -12.039,-28.845c-1.931,2.997 -3.615,6.131 -4.809,9.271c2.63,4.343 2.719,8.359 2.719,8.359c-1.364,-2.181 -3.145,-4.247 -4.311,-5.512c-3.239,-3.38 -21.389,-22.125 -28.196,-25.196c-7.487,-3.378 -20.895,-0.632 -17.172,20.517c3.72,21.146 -15.491,43.466 -9.013,59.067c6.475,15.6 7.922,23.209 15.477,17.86c7.555,-5.346 13.887,-21.832 10.876,-35.165c-3.01,-13.334 -6.108,-25.257 -1.706,-34.037c0.235,-0.466 0.468,-0.817 0.701,-1.1c0.958,-1.314 7.169,-10.301 3.133,-17.054c0,0 8.091,2.285 1.037,19.872c2.491,5.691 4.579,16.503 5.584,19.473c1.624,4.784 6.948,23.404 23.319,11.815c0,0 6.632,-3.996 15.262,-5.575c2.621,-2.11 17.236,-13.412 32.577,-15.717c0,0 -10.776,5.661 -22.806,15.234c-0.565,0.45 -1.132,0.902 -1.705,1.37c-5.181,4.249 -10.511,9.199 -15.244,14.718c-15.124,17.511 -23.687,12.508 -26.618,26.07c-2.932,13.564 10.637,12.722 15.658,34.054c5.024,21.33 7.083,36.467 22.853,46.136c8.33,5.712 18.047,-13.468 15.507,-26.656c-2.538,-13.186 -30.485,-31.32 -26.231,-46.931c4.253,-15.614 20.75,-21.525 45.711,-27.541c0.636,-0.155 1.234,-0.323 1.827,-0.493c0.531,-0.157 1.046,-0.318 1.548,-0.486c20.703,-6.923 12.527,-24.851 12.527,-24.851c10.743,13.983 2.545,22.84 -4.45,27.308c6.701,1.631 14.375,2.489 23.007,1.846c3.071,-0.231 5.806,-0.285 8.281,-0.197c6.912,-0.684 18.183,-2.399 22.488,-6.523c0,0 -1.803,6.278 -10.261,8.989c12.187,5.626 10.422,20.046 16.165,36.164c7.882,22.118 28.05,19.186 31.992,39.871c3.944,20.683 -5.683,39.603 -0.954,53.38c0,0 2.166,8.753 9.299,11.179c1.624,0.551 3.403,0.345 4.886,-0.513c4.441,-2.564 14.153,-9.94 12.563,-24.741Z" style="fill:#f067a6;fill-rule:nonzero;"/><path d="M397.193,246.182c-10.108,9.757 -15.932,22.197 -18.983,30.621c3.389,-7.714 8.675,-16.994 16.586,-24.632c-0.318,2.415 -0.595,5.213 -0.595,7.607l0,5.407l3.621,-4.016c0.032,-0.036 3.145,-3.472 6.619,-5.638l0.134,-0.083l0.121,-0.103c1.913,-1.639 4.861,-3.221 8.525,-4.569c5.468,-2.016 11.155,-3.035 16.902,-3.035c0.296,0 0.594,0.002 0.889,0.007c16.503,0.307 28.46,8.166 36.46,18.85c3.08,4.113 6.583,7.9 10.691,10.987c0.282,0.21 0.56,0.428 0.838,0.649c-6.276,-18.521 -20.806,-36.014 -45.594,-36.475c-0.296,-0.005 -0.592,-0.007 -0.887,-0.007c-5.75,0 -11.437,1.019 -16.902,3.035c-3.664,1.348 -6.612,2.929 -8.525,4.569l-0.121,0.103l-0.134,0.083c-3.476,2.166 -6.59,5.602 -6.621,5.635l-3.62,4.019l0,-5.407c0,-2.397 0.278,-5.195 0.596,-7.607Z" style="fill:#00b3f0;fill-rule:nonzero;"/><path d="M484.397,364.192c-1.77,0.661 -3.58,1.002 -5.381,1.002c-3.5,0 -6.782,-1.221 -9.75,-3.629c-9.559,-7.752 -8.058,-19.451 -6.287,-25.798c-0.179,0.342 -0.356,0.665 -0.524,0.949l-0.168,0.28l-0.137,0.303c-0.311,0.678 -6.598,14.749 0.451,25.561c2.383,3.653 6.182,6.251 10.516,6.746c3.543,0.403 7.924,-0.437 11.28,-5.414Z" style="fill:#00b3f0;fill-rule:nonzero;"/><path d="M306.383,367.534c-12.845,5.448 -17.6,2.318 -17.6,2.318c13.013,-1.493 14.635,-6.157 14.825,-7.588c-0.208,-2.222 -2.316,-5.071 -11.497,-5.66c0,0 -9.86,-0.52 -15.813,-2.128c-4.778,-1.046 -11.504,-2.011 -15.121,5.45c-0.726,2.049 -1.25,4.159 -1.411,6.293c-0.995,13.173 19.614,10.595 29.167,11.71c9.553,1.116 10.339,13.529 3.111,29.362c-7.226,15.831 -7.497,26.728 1.377,40.803c8.872,14.078 21.359,1.824 20.278,-18.648c-1.082,-20.47 -9.242,-27.217 -0.708,-44.159c8.466,-16.803 0.73,-19.332 -6.608,-17.753Z" style="fill:#f067a6;fill-rule:nonzero;"/><path d="M375.22,489.413c0,2.179 -40.023,3.944 -89.396,3.944c-49.373,0 -89.396,-1.765 -89.396,-3.944c0,-2.18 40.023,-3.947 89.396,-3.947c49.373,0 89.396,1.767 89.396,3.947Z" style="fill:#432b69;fill-rule:nonzero;"/><path d="M121.61,185.227c-3.805,7.145 -9.107,14.178 -16.467,20.365c-11.508,9.676 -22.564,24.808 -21.682,39.985c-0.147,-0.49 -0.284,-0.983 -0.403,-1.48c-3.778,-15.836 7.752,-32.303 19.805,-42.436c16.427,-13.811 22.008,-32.081 23.711,-45.673c0,0 5.196,8.346 -4.964,29.239Z" style="fill:#00b3f0;fill-rule:nonzero;"/><path d="M184.942,122.221c-0.043,0.047 -5.089,5.884 -14.526,11.367c-7.288,4.235 -15.208,7.143 -23.534,8.641c-14.588,2.623 -27.285,8.386 -36.726,16.665c-1.407,1.234 -2.737,2.519 -3.987,3.854c0,0 7.187,-16.711 30.782,-22.689c23.594,-5.976 31.046,-5.696 47.991,-17.838Z" style="fill:#00b3f0;fill-rule:nonzero;"/><path d="M146.511,101.018c1.989,5.672 -0.655,10.893 -0.655,10.893c0.892,-6.254 -1.451,-9.723 -2.141,-10.592c-0.97,-1.212 -5.048,-5.629 -12.794,-7.932c1.727,2.43 4.708,7.918 3.326,15.52c-0.638,3.51 -1.415,6.148 -1.982,8.312c-1.046,3.983 -0.289,8.344 2.383,11.477c0.265,0.311 0.54,0.603 0.82,0.876c0,0 8.037,7.36 15.896,-6.675c6.776,-12.102 0.643,-21.612 -4.853,-21.879Zm-20.786,-8.742c-0.005,0 -0.009,0 -0.011,-0.002c0.015,-0.02 -5.387,-4.941 -12.21,-7.25c1.505,2.894 2.433,6.975 2.009,12.411c-0.089,1.14 -0.134,2.197 -0.147,3.174c-0.101,8.374 4.73,16.129 12.531,19.179l0.11,0.043c0.388,-2.977 2.193,-6.081 3.194,-11.585c1.4,-9.053 -4.569,-15.107 -5.476,-15.97Zm-18.49,-9.38c-2.441,-2.054 -8.287,-6.601 -13.139,-7.571c-6.296,-1.276 -13.824,-8.883 -16.158,-5.008c-1.465,2.441 2.052,4.652 3.452,5.875c1.399,1.225 4.882,4.58 4.882,4.583c4.585,5.758 8.487,9.093 11.209,10.982c-2.054,-7.746 -4.525,-11.762 -4.525,-11.762c5.781,5.521 8.299,13.003 8.628,14.035l0.002,0c3.566,6.561 7.927,10.032 10.866,11.766c-0.121,-1.978 -0.162,-4.829 0.138,-8.677c0.63,-8.073 -2.761,-11.838 -5.355,-14.223Z" style="fill:#fff;fill-rule:nonzero;"/><path d="M227.23,156.013c-8.745,-11.159 -4.966,-26.495 -4.917,-26.69c0.213,-0.683 -0.011,-1.597 -0.011,-1.597c0,0 1.263,1.212 1.028,7.394c-0.233,6.182 2.191,18.396 3.9,20.893Z" style="fill:#00b3f0;fill-rule:nonzero;"/><rect x="72.504" y="20.142" width="13.488" height="13.486" style="fill:#f067a6;fill-rule:nonzero;"/><rect x="85.992" y="6.643" width="13.488" height="13.488" style="fill:#f067a6;fill-rule:nonzero;"/><rect x="99.487" y="20.142" width="13.488" height="13.486" style="fill:#f067a6;fill-rule:nonzero;"/><rect x="112.971" y="33.64" width="13.486" height="13.488" style="fill:#f067a6;fill-rule:nonzero;"/><path d="M65.852,39.672c-1.727,-1.508 -3.734,-2.509 -5.92,-3.163c-0.081,-0.025 -0.161,-0.052 -0.273,-0.087c0.091,-0.112 0.156,-0.186 0.219,-0.265c1.588,-2.034 2.034,-4.269 1.21,-6.737c-0.464,-1.391 -1.183,-2.659 -1.992,-3.862c-0.701,-1.043 -1.536,-2 -2.331,-2.981c-1.19,-1.469 -2.368,-2.945 -3.333,-4.576c-0.789,-1.333 -1.4,-2.726 -1.613,-4.282c-0.069,-0.502 -0.275,-1.011 -0.524,-1.456c-1.075,-1.933 -3.277,-2.603 -5.143,-1.595c-1.007,0.546 -1.744,1.373 -2.354,2.325c-0.73,1.142 -1.24,2.385 -1.635,3.675c-0.694,2.267 -1.066,4.601 -1.35,6.946c-0.809,6.635 -0.719,13.271 -0.056,19.91c-0.318,-0.105 -0.661,-0.152 -1.017,-0.11c-1.288,0.15 -2.211,1.32 -2.061,2.607c0.047,0.399 0.199,0.755 0.412,1.062c-3.411,0.262 -6.8,0.712 -10.169,1.337c-4.231,0.784 -8.392,1.844 -12.433,3.342c-1.971,0.73 -3.899,1.548 -5.64,2.748c-1.221,0.84 -2.329,1.801 -3.024,3.147c-0.645,1.252 -0.781,2.536 -0.026,3.784c0.884,1.464 2.255,2.058 3.933,2.033c0.412,-0.006 0.826,-0.011 1.236,0.027c1.304,0.126 2.533,0.529 3.738,1.013c1.998,0.804 3.875,1.843 5.741,2.902c1.749,0.997 3.606,1.714 5.566,2.144c2.159,0.477 4.18,0.159 5.945,-1.257c0.479,-0.385 0.904,-0.835 1.37,-1.267c0.029,0.058 0.063,0.123 0.097,0.188c1.279,2.464 2.972,4.562 5.351,6.047c1.899,1.187 3.973,1.662 6.204,1.441c1.644,-0.162 3.167,-0.722 4.657,-1.394c1.153,-0.522 2.275,-1.099 3.214,-1.973c1.019,-0.947 1.433,-2.092 1.017,-3.452c-0.177,-0.573 -0.397,-1.144 -0.679,-1.67c-1.384,-2.596 -2.645,-5.246 -3.812,-7.945c-0.074,-0.17 -0.146,-0.345 -0.235,-0.558c0.105,0.052 0.163,0.076 0.219,0.112c0.372,0.231 0.737,0.47 1.118,0.686c1.14,0.647 2.289,1.292 3.566,1.628c0.385,0.101 0.797,0.159 1.193,0.145c0.616,-0.02 0.968,-0.434 0.885,-1.039c-0.051,-0.385 -0.172,-0.777 -0.34,-1.129c-0.683,-1.411 -1.696,-2.589 -2.726,-3.754c-0.184,-0.208 -0.374,-0.414 -0.6,-0.66c0.096,0.015 0.129,0.02 0.159,0.026c2.627,0.59 5.239,1.235 7.808,2.036c0.938,0.294 1.868,0.614 2.855,0.708c0.975,0.094 1.859,-0.114 2.587,-0.804c0.473,-0.45 0.825,-0.99 1.093,-1.581c0.755,-1.646 1.174,-3.389 1.385,-5.174c0.414,-3.476 -0.851,-6.948 -3.492,-9.248Z" style="fill:#f067a6;fill-rule:nonzero;"/><path d="M126.668,125.054c-0.67,-0.244 -1.523,-0.609 -2.437,-1.039c-4.157,1.857 -9.018,5.873 -13.034,14.335c0,0 5.452,-7.75 15.625,-12.899c-0.047,-0.135 -0.109,-0.26 -0.154,-0.397Z" style="fill:#00b3f0;fill-rule:nonzero;"/><path d="M331.149,261.695c-15.213,-2.278 -27.655,-13.004 -31.313,-27.619c-1.91,-7.64 -2.327,-15.117 -2.358,-19.814c-0.043,-6.343 -0.412,-12.682 -1.313,-18.949c-5.723,-39.831 -22.797,-63.497 -41.784,-76.992c-4.094,-2.909 -9.806,-1.899 -12.684,2.218c-0.484,0.692 -0.959,1.422 -1.431,2.15c0.777,0.307 1.554,0.634 2.327,0.972c0.136,0.06 0.273,0.125 0.41,0.188c0.627,0.278 1.252,0.564 1.877,0.865c0.235,0.114 0.47,0.237 0.705,0.353c0.524,0.26 1.046,0.52 1.568,0.798c0.273,0.143 0.547,0.3 0.82,0.448c0.481,0.264 0.961,0.528 1.44,0.804c0.293,0.17 0.585,0.349 0.876,0.526c0.455,0.274 0.907,0.547 1.359,0.834c0.305,0.192 0.61,0.396 0.914,0.595c0.435,0.287 0.869,0.576 1.302,0.876c0.311,0.215 0.62,0.437 0.931,0.661c0.419,0.302 0.84,0.609 1.257,0.925c0.314,0.235 0.627,0.479 0.938,0.723c0.408,0.323 0.816,0.648 1.221,0.981c0.314,0.26 0.625,0.522 0.936,0.789c0.399,0.34 0.796,0.69 1.19,1.044c0.311,0.28 0.62,0.56 0.929,0.848c0.39,0.366 0.778,0.74 1.165,1.118c0.305,0.298 0.607,0.596 0.909,0.901c0.386,0.392 0.766,0.795 1.147,1.2c0.296,0.316 0.592,0.63 0.885,0.954c0.381,0.421 0.755,0.856 1.129,1.29c0.286,0.334 0.573,0.663 0.858,1.006c0.376,0.453 0.746,0.925 1.115,1.393c0.273,0.348 0.547,0.686 0.818,1.04c0.383,0.506 0.759,1.03 1.135,1.552c0.247,0.343 0.497,0.676 0.742,1.028c0.414,0.596 0.819,1.214 1.225,1.832c0.199,0.302 0.401,0.591 0.596,0.898c0.598,0.939 1.187,1.9 1.762,2.89c6.747,11.586 12.037,26.849 14.924,46.947c0.901,6.264 1.27,12.605 1.313,18.949c0.031,4.697 0.448,12.173 2.358,19.813c3.658,14.615 16.1,25.342 31.313,27.617c16.611,2.489 53.145,12.893 49.138,56.24c-2.836,30.688 -8.169,41.666 -10.487,48.459c0.011,0.914 0.217,1.553 0.753,1.673c3.715,-8.222 13.06,-20.563 16.223,-54.786c4.005,-43.347 -32.527,-53.752 -49.138,-56.238Z" style="fill:#f49ac1;fill-rule:nonzero;"/><path d="M307.044,445.81c-2.296,0 -4.863,-2.065 -7.226,-5.819c-4.979,-7.898 -7.658,-14.862 -8.088,-22.202c-3.118,10.534 -1.637,18.535 4.619,28.46c1.801,2.86 3.758,4.432 5.505,4.432c1.391,0 2.625,-0.994 3.418,-1.827c0.726,-0.766 1.452,-1.799 2.119,-3.073c-0.116,0.009 -0.23,0.029 -0.347,0.029Z" style="fill:#f49ac1;fill-rule:nonzero;"/><path d="M155.271,338.363c-0.926,-2.323 -1.938,-4.861 -3.074,-7.593c-2.04,-4.917 -1.493,-10.886 0.146,-17.413c-3.317,9.56 -6.386,18.571 -3.626,25.221c0.918,2.21 1.736,4.262 2.484,6.139c1.928,4.838 4.327,10.861 5.64,11.287l0.015,0.002c0.065,0 0.679,-0.032 2.142,-1.066c0.996,-0.708 1.975,-1.665 2.909,-2.818c-1.673,-1.308 -4.41,-8.171 -6.636,-13.759Z" style="fill:#f49ac1;fill-rule:nonzero;"/><path d="M234.942,408.826c-0.558,6.242 -3.089,12.554 -5.967,16.039c-1.414,1.711 -2.899,2.733 -3.978,2.733c-0.41,0 -0.827,-0.153 -1.282,-0.464l-0.159,-0.103c-7.046,-4.321 -11.311,-9.716 -14.375,-16.476c3.082,10.733 7.132,18.579 16.548,24.351l0.146,0.097c0.423,0.289 0.81,0.427 1.189,0.427c0.997,0 2.372,-0.945 3.68,-2.526c3.64,-4.41 6.697,-13.71 5.284,-21.046c-0.182,-0.945 -0.565,-1.962 -1.086,-3.032Z" style="fill:#f49ac1;fill-rule:nonzero;"/><path d="M250.036,193.806c-3.058,16.546 -10.046,27.198 -16.19,33.882c-4.148,4.509 -7.644,9.528 -10.659,14.859c-0.018,0.031 -0.036,0.06 -0.052,0.092c-2.699,4.75 -5.295,10.216 -7.246,16.12c-4.349,13.168 -5.483,28.52 2.57,43.034c-3.784,-12.46 0.817,-25.089 14.966,-41.137c24.455,-27.74 16.611,-66.85 16.611,-66.85Z" style="fill:#f49ac1;fill-rule:nonzero;"/></g></svg>